<svg width="32" height="32" viewBox="0 0 32 32" fill="none" xmlns="http://www.w3.org/2000/svg">
<rect y="0.000244141" width="32" height="32" rx="16" fill="#F5F3FF"/>
<path d="M22 16.5269C21.8951 17.6617 21.4692 18.7432 20.7722 19.6448C20.0751 20.5464 19.1357 21.2308 18.0638 21.6179C16.9919 22.0051 15.832 22.079 14.7197 21.831C13.6073 21.583 12.5887 21.0233 11.7828 20.2174C10.977 19.4116 10.4173 18.3929 10.1693 17.2806C9.92125 16.1683 9.99515 15.0083 10.3823 13.9364C10.7695 12.8646 11.4539 11.9252 12.3555 11.2281C13.2571 10.531 14.3385 10.1051 15.4733 10.0002C14.8089 10.8991 14.4892 12.0065 14.5724 13.1212C14.6555 14.2358 15.1359 15.2836 15.9263 16.074C16.7166 16.8643 17.7644 17.3448 18.8791 17.4279C19.9937 17.511 21.1012 17.1913 22 16.5269V16.5269Z" stroke="#8B5CF6" stroke-linecap="round" stroke-linejoin="round"/>
</svg>
