<svg width="32" height="32" viewBox="0 0 32 32" fill="none" xmlns="http://www.w3.org/2000/svg">
<rect y="0.000244141" width="32" height="32" rx="16" fill="#F5F3FF"/>
<g clip-path="url(#clip0_0_2615)">
<path d="M19.3333 20.0002C19.3333 19.1162 18.9821 18.2683 18.357 17.6432C17.7319 17.0181 16.8841 16.6669 16 16.6669C15.1159 16.6669 14.2681 17.0181 13.643 17.6432C13.0179 18.2683 12.6667 19.1162 12.6667 20.0002" stroke="#8B5CF6" stroke-linecap="round" stroke-linejoin="round"/>
<path d="M16 9.33359V14.0003" stroke="#8B5CF6" stroke-linecap="round" stroke-linejoin="round"/>
<path d="M10.8133 14.8136L11.76 15.7602" stroke="#8B5CF6" stroke-width="1.5" stroke-linecap="round" stroke-linejoin="round"/>
<path d="M8.66667 20.0002H10" stroke="#8B5CF6" stroke-width="1.5" stroke-linecap="round" stroke-linejoin="round"/>
<path d="M22 20.0002H23.3333" stroke="#8B5CF6" stroke-width="1.5" stroke-linecap="round" stroke-linejoin="round"/>
<path d="M20.24 15.7602L21.1867 14.8136" stroke="#8B5CF6" stroke-width="1.5" stroke-linecap="round" stroke-linejoin="round"/>
<path d="M23.3333 22.6669H8.66667" stroke="#8B5CF6" stroke-width="1.5" stroke-linecap="round" stroke-linejoin="round"/>
<path d="M13.3333 12.0003L16 9.33359L18.6667 12.0003" stroke="#8B5CF6" stroke-width="1.5" stroke-linecap="round" stroke-linejoin="round"/>
</g>
<defs>
<clipPath id="clip0_0_2615">
<rect width="16" height="16" fill="white" transform="translate(8 8.00024)"/>
</clipPath>
</defs>
</svg>
