<svg width="24" height="25" viewBox="0 0 24 25" fill="none" xmlns="http://www.w3.org/2000/svg">
<path d="M18 8.30981C18 6.71852 17.3679 5.19239 16.2426 4.06717C15.1174 2.94196 13.5913 2.30981 12 2.30981C10.4087 2.30981 8.88258 2.94196 7.75736 4.06717C6.63214 5.19239 6 6.71852 6 8.30981C6 15.3098 3 17.3098 3 17.3098H21C21 17.3098 18 15.3098 18 8.30981Z" stroke="#6B7280" stroke-width="1.5" stroke-linecap="round" stroke-linejoin="round"/>
<path d="M13.73 21.3098C13.5542 21.6129 13.3018 21.8645 12.9982 22.0393C12.6946 22.2142 12.3504 22.3063 12 22.3063C11.6496 22.3063 11.3054 22.2142 11.0018 22.0393C10.6982 21.8645 10.4458 21.6129 10.27 21.3098" stroke="#6B7280" stroke-width="1.5" stroke-linecap="round" stroke-linejoin="round"/>
</svg>
