<svg width="32" height="32" viewBox="0 0 32 32" fill="none" xmlns="http://www.w3.org/2000/svg">
<path d="M32 27.892C32 30.1193 30.1905 31.9507 27.9349 31.9507H4.06506C1.83424 31.9507 0 30.1441 0 27.892V4.05902C0 1.83164 1.80945 0.000244141 4.06506 0.000244141H27.9349C30.1658 0.000244141 32 1.80689 32 4.05902V27.892Z" fill="#FB7185"/>
<g style="mix-blend-mode:color-burn">
<path d="M18.5902 25.2191L17.6 23.2002L22 20.0002L21.7382 16.3344L20.8 12.4002L19.6561 10.9654H19.4082L19.433 10.0002L18.962 9.80224L18.9125 5.79296L17.2517 5.84246L0 22.8002V27.9415C0 30.1688 1.80945 32.0003 4.06506 32.0003H14.4L20 26.4002L18.5902 25.2191Z" fill="#C9C9C9"/>
</g>
<g clip-path="url(#clip0_2_304)">
<path d="M21.5111 12.8861C21.5111 12.8296 21.5111 12.773 21.5111 12.7165C21.5111 12.3772 21.3985 12.0945 21.2859 11.8118L21.9052 11.1898C22.1867 10.9071 22.2993 10.5678 22.243 10.172L22.0741 9.21072C21.9615 8.81491 22.0741 8.47564 22.3556 8.19292L22.8622 7.68402C23.3126 7.23166 23.3126 6.55313 22.8622 6.10077L21.9052 5.13951C21.4548 4.68716 20.7793 4.68716 20.3289 5.13951L19.8222 5.64841C19.5407 5.93114 19.203 6.04423 18.8089 5.98768L17.8519 5.81805C17.5141 5.7615 17.12 5.87459 16.8385 6.15732L11.8281 11.1898C11.3778 11.6421 11.3778 12.3207 11.8281 12.773L15.3185 16.2788C15.7689 16.7311 16.4444 16.7311 16.8948 16.2788L18.9215 14.2432C19.203 14.4128 19.4844 14.4694 19.8222 14.4694C20.0474 14.4694 20.2726 14.4128 20.4978 14.3563C21.117 15.0913 21.5111 15.9961 21.5111 17.0139V17.5793C21.5111 19.8976 19.4844 21.8201 16.9511 21.8201H8.84444C8.39407 21.7636 8 22.1029 8 22.6118C8 23.1207 8.39407 23.4599 8.84444 23.4599H11.8281C11.2089 24.0819 10.8148 24.9866 10.8148 26.0044V26.1741C10.8148 26.3437 10.9274 26.4568 11.0963 26.4568H19.5407C19.7096 26.4568 19.8222 26.3437 19.8222 26.1741V26.0044C19.8222 24.9301 19.3156 23.9123 18.5837 23.2338C21.2296 22.5552 23.2 20.2369 23.2 17.5228V16.9573C23.2 15.3741 22.5244 13.9039 21.5111 12.8861Z" fill="white"/>
<path d="M11.7156 17.1835C12.1659 17.6358 12.8415 17.6358 13.2918 17.1835L13.5733 16.9008C13.6859 16.7877 13.6859 16.618 13.5733 16.505L11.3778 14.2997C11.2652 14.1866 11.0963 14.1866 10.9837 14.2997L10.7022 14.5824C10.2518 15.0348 10.2518 15.7133 10.7022 16.1657L11.7156 17.1835ZM17.0074 18.9364H10.8148C10.3644 18.9364 9.97037 19.3322 9.97037 19.7845C9.97037 20.2369 10.3644 20.6327 10.8148 20.6327H17.0074C17.4578 20.6327 17.8518 20.2369 17.8518 19.7845C17.8518 19.3322 17.4578 18.9364 17.0074 18.9364Z" fill="white"/>
</g>
<defs>
<clipPath id="clip0_2_304">
<rect width="15.2" height="21.6" fill="white" transform="translate(8 4.80025)"/>
</clipPath>
</defs>
</svg>
