<svg width="32" height="32" viewBox="0 0 32 32" fill="none" xmlns="http://www.w3.org/2000/svg">
<g clip-path="url(#clip0_0_2617)">
<path d="M16 19.3336C17.8409 19.3336 19.3333 17.8412 19.3333 16.0002C19.3333 14.1593 17.8409 12.6669 16 12.6669C14.159 12.6669 12.6667 14.1593 12.6667 16.0002C12.6667 17.8412 14.159 19.3336 16 19.3336Z" stroke="#6B7280" stroke-linecap="round" stroke-linejoin="round"/>
<path d="M16 8.6669V10.0002" stroke="#6B7280" stroke-linecap="round" stroke-linejoin="round"/>
<path d="M16 22.0002V23.3336" stroke="#6B7280" stroke-width="1.5" stroke-linecap="round" stroke-linejoin="round"/>
<path d="M10.8133 10.8136L11.76 11.7602" stroke="#6B7280" stroke-width="1.5" stroke-linecap="round" stroke-linejoin="round"/>
<path d="M20.24 20.2402L21.1867 21.1869" stroke="#6B7280" stroke-width="1.5" stroke-linecap="round" stroke-linejoin="round"/>
<path d="M8.66666 16.0002H10" stroke="#6B7280" stroke-width="1.5" stroke-linecap="round" stroke-linejoin="round"/>
<path d="M22 16.0002H23.3333" stroke="#6B7280" stroke-width="1.5" stroke-linecap="round" stroke-linejoin="round"/>
<path d="M10.8133 21.1869L11.76 20.2402" stroke="#6B7280" stroke-width="1.5" stroke-linecap="round" stroke-linejoin="round"/>
<path d="M20.24 11.7602L21.1867 10.8136" stroke="#6B7280" stroke-width="1.5" stroke-linecap="round" stroke-linejoin="round"/>
</g>
<defs>
<clipPath id="clip0_0_2617">
<rect width="16" height="16" fill="white" transform="translate(8 8.00024)"/>
</clipPath>
</defs>
</svg>
