<svg width="32" height="32" viewBox="0 0 32 32" fill="none" xmlns="http://www.w3.org/2000/svg">
<path d="M32 27.892C32 30.1193 30.1906 31.9507 27.9349 31.9507H4.06506C1.83424 31.9507 0 30.1441 0 27.892V4.05902C0 1.83164 1.80945 0.000244141 4.06506 0.000244141H27.9349C30.1658 0.000244141 32 1.80689 32 4.05902V27.892Z" fill="#F472B6"/>
<g style="mix-blend-mode:color-burn">
<path d="M25.9291 24.8002L25.6 22.8002L25.9291 20.0002V13.2002L22.4 11.3654H26.3752L26.4 10.4002L25.9291 10.2022L21.6 7.20022H11.6H10.4L6 10.2022L0 17.349V27.9415C0 30.1688 1.80945 32.0002 4.06506 32.0002H18.8L23.2 27.2002L25.9291 24.8002Z" fill="#C9C9C9"/>
</g>
<g clip-path="url(#clip0_16_56)">
<path d="M21.4476 7.20024H10.5524C10.1562 7.20024 9.80952 7.54728 9.80952 7.9439C9.80952 8.34052 10.1562 8.68756 10.5524 8.68756H10.8V24.5524C10.8 24.7011 10.899 24.8002 11.0476 24.8002H20.9524C21.101 24.8002 21.2 24.7011 21.2 24.5524V8.68756H21.4476C21.8438 8.68756 22.1905 8.34052 22.1905 7.9439C22.1905 7.54728 21.8438 7.20024 21.4476 7.20024ZM15.2571 22.5693C15.2571 22.718 15.1581 22.8171 15.0095 22.8171H12.5333C12.3848 22.8171 12.2857 22.718 12.2857 22.5693V21.0819C12.2857 20.9332 12.3848 20.834 12.5333 20.834H15.0095C15.1581 20.834 15.2571 20.9332 15.2571 21.0819V22.5693ZM15.2571 18.6031C15.2571 18.7518 15.1581 18.8509 15.0095 18.8509H12.5333C12.3848 18.8509 12.2857 18.7518 12.2857 18.6031V17.1157C12.2857 16.967 12.3848 16.8678 12.5333 16.8678H15.0095C15.1581 16.8678 15.2571 16.967 15.2571 17.1157V18.6031ZM13.0286 11.9101C13.0286 10.274 14.3657 8.93545 16 8.93545C17.6343 8.93545 18.9714 10.274 18.9714 11.9101C18.9714 13.5462 17.6343 14.8847 16 14.8847C14.3657 14.8847 13.0286 13.5462 13.0286 11.9101ZM19.7143 22.5693C19.7143 22.718 19.6152 22.8171 19.4667 22.8171H16.9905C16.8419 22.8171 16.7429 22.718 16.7429 22.5693V21.0819C16.7429 20.9332 16.8419 20.834 16.9905 20.834H19.4667C19.6152 20.834 19.7143 20.9332 19.7143 21.0819V22.5693ZM19.7143 18.6031C19.7143 18.7518 19.6152 18.8509 19.4667 18.8509H16.9905C16.8419 18.8509 16.7429 18.7518 16.7429 18.6031V17.1157C16.7429 16.967 16.8419 16.8678 16.9905 16.8678H19.4667C19.6152 16.8678 19.7143 16.967 19.7143 17.1157V18.6031Z" fill="white"/>
<path d="M5.60001 10.9186C5.60001 11.3152 5.94667 11.6622 6.34286 11.6622H9.56191V10.1749H6.34286C5.94667 10.1749 5.60001 10.5219 5.60001 10.9186ZM17.5848 11.2656H16.6438V10.3236C16.6438 10.274 16.5943 10.1749 16.4952 10.1749H15.4057C15.3562 10.1749 15.2571 10.2245 15.2571 10.3236V11.2656H14.3162C14.2667 11.2656 14.1676 11.3152 14.1676 11.4143V12.505C14.1676 12.5546 14.2171 12.6538 14.3162 12.6538H15.2571V13.5957C15.2571 13.6453 15.3067 13.7445 15.4057 13.7445H16.4952C16.5448 13.7445 16.6438 13.6949 16.6438 13.5957V12.6538H17.5848C17.6343 12.6538 17.7333 12.6042 17.7333 12.505V11.3647C17.7333 11.3152 17.6838 11.2656 17.5848 11.2656ZM9.31429 12.9016H6.34286C6.19429 12.9016 6.09524 13.0008 6.09524 13.1495V24.5524C6.09524 24.7011 6.19429 24.8002 6.34286 24.8002H9.31429C9.46286 24.8002 9.56191 24.7011 9.56191 24.5524V20.834H7.58096C7.43239 20.834 7.33334 20.7349 7.33334 20.5862V19.0988C7.33334 18.9501 7.43239 18.8509 7.58096 18.8509H9.56191V16.8678H7.58096C7.43239 16.8678 7.33334 16.7687 7.33334 16.62V15.1326C7.33334 14.9839 7.43239 14.8847 7.58096 14.8847H9.56191V13.1495C9.56191 13.0008 9.46286 12.9016 9.31429 12.9016ZM25.6571 10.1749H22.4381V11.6622H25.6571C26.0533 11.6622 26.4 11.3152 26.4 10.9186C26.4 10.5219 26.0533 10.1749 25.6571 10.1749ZM25.6571 12.9016H22.6857C22.5371 12.9016 22.4381 13.0008 22.4381 13.1495V14.8847H24.4191C24.5676 14.8847 24.6667 14.9839 24.6667 15.1326V16.62C24.6667 16.7687 24.5676 16.8678 24.4191 16.8678H22.4381V18.8509H24.4191C24.5676 18.8509 24.6667 18.9501 24.6667 19.0988V20.5862C24.6667 20.7349 24.5676 20.834 24.4191 20.834H22.4381V24.5524C22.4381 24.7011 22.5371 24.8002 22.6857 24.8002H25.6571C25.8057 24.8002 25.9048 24.7011 25.9048 24.5524V13.1495C25.9048 13.0008 25.8057 12.9016 25.6571 12.9016Z" fill="white"/>
</g>
<defs>
<clipPath id="clip0_16_56">
<rect width="20.8" height="17.6" fill="white" transform="translate(5.60001 7.20024)"/>
</clipPath>
</defs>
</svg>
