<svg width="32" height="32" viewBox="0 0 32 32" fill="none" xmlns="http://www.w3.org/2000/svg">
<path d="M32 27.892C32 30.1193 30.1905 31.9507 27.9349 31.9507H4.06506C1.83424 31.9507 0 30.1441 0 27.892V4.05902C0 1.83164 1.80945 0.000244141 4.06506 0.000244141H27.9349C30.1658 0.000244141 32 1.80689 32 4.05902V27.892Z" fill="#FACC15"/>
<g style="mix-blend-mode:color-burn">
<path d="M23.2 22.0002L22.4 20.8002L18.8 14.8002L15.7397 12.0002V9.49953V9.60273L14.4 8.40023L13.2 9.20023L10.8 8.80023L7.2 7.20023L0 12.0002V27.9415C0 30.1688 1.80945 32.0002 4.06506 32.0002H15.3184L24.8 25.2191L23.2 22.0002Z" fill="#C9C9C9"/>
</g>
<g clip-path="url(#clip0_2_295)">
<path d="M7.24457 7.24482C6.11847 8.37092 6.11847 10.1164 7.24457 11.2425L9.21524 13.2131L8.20175 14.2266C8.08914 14.3392 8.08914 14.5082 8.20175 14.6208L9.38416 15.8032C9.49677 15.9158 9.66568 15.9158 9.77829 15.8032L15.8029 9.83485C15.9155 9.72224 15.9155 9.55332 15.8029 9.44071L14.6205 8.25831C14.5079 8.1457 14.339 8.1457 14.2264 8.25831L13.2129 9.2718L11.2422 7.30112C10.1161 6.11872 8.31436 6.11872 7.24457 7.24482Z" fill="white"/>
<path d="M15.4088 11.8055L11.8053 15.409C11.6927 15.5217 11.6927 15.6906 11.8053 15.8032L20.3073 24.3052C20.4199 24.4178 20.5325 24.4741 20.7015 24.4741L23.2352 24.4741L24.1361 25.375C24.4739 25.7129 24.9806 25.7129 25.3185 25.375C25.4874 25.2061 25.5437 24.9809 25.5437 24.7557C25.5437 24.5304 25.4874 24.3052 25.3185 24.1363L24.4176 23.2917L24.4176 20.758C24.4176 20.5891 24.3613 20.4765 24.2487 20.3639L15.7466 11.8618C15.6903 11.6929 15.5214 11.6929 15.4088 11.8055ZM19.0123 18.6747L21.3771 21.0395C21.4897 21.1521 21.6023 21.3774 21.6023 21.5463C21.6023 21.7152 21.546 21.8841 21.3771 22.053C21.0956 22.3346 20.6452 22.3346 20.3636 22.053L17.9988 19.6882C17.7173 19.4067 17.7173 18.9563 17.9988 18.6747C18.2803 18.3932 18.7308 18.3932 19.0123 18.6747ZM16.4223 16.0847L17.2105 16.873C17.3232 16.9856 17.4358 17.2108 17.4358 17.3797C17.4358 17.5486 17.3795 17.7175 17.2105 17.8865C16.929 18.168 16.4786 18.168 16.1971 17.8865L15.4088 17.0982C15.1273 16.8167 15.1273 16.3662 15.4088 16.0847C15.6903 15.8032 16.1408 15.8032 16.4223 16.0847Z" fill="white"/>
</g>
<defs>
<clipPath id="clip0_2_295">
<rect width="19.2" height="19.2" fill="white" transform="translate(6.39999 25.6002) rotate(-90)"/>
</clipPath>
</defs>
</svg>
