<svg width="32" height="32" viewBox="0 0 32 32" fill="none" xmlns="http://www.w3.org/2000/svg">
<path d="M32 27.9352C32 30.166 30.1905 32.0002 27.9349 32.0002H4.06507C1.83424 32.0002 0 30.1908 0 27.9352V4.06531C0 1.83448 1.80945 0.000244141 4.06507 0.000244141H27.9349C30.1658 0.000244141 32 1.8097 32 4.06531V27.9352Z" fill="#22D3EE"/>
<g style="mix-blend-mode:color-burn">
<path d="M22.5308 23.8335L22.3077 23.4865L23.6 24.0002V10.8002L10.4 10.4002L9.92905 9.90449L8 8.00024L0 14.8002V27.9352C0 30.166 1.80945 32.0002 4.06507 32.0002L12 32.0003L22.8 24.4002L22.5308 23.8335Z" fill="#C9C9C9"/>
</g>
<g clip-path="url(#clip0_2_262)">
<path d="M22.6162 8.00024H20.627C20.08 8.00024 19.6324 8.47027 19.6324 9.04475C19.6324 9.61924 19.1849 10.0893 18.6378 10.0893C18.0908 10.0893 17.6432 9.61924 17.6432 9.04475C17.6432 8.47027 17.1957 8.00024 16.6486 8.00024H14.1622C13.6151 8.00024 13.1676 8.47027 13.1676 9.04475C13.1676 9.61924 12.72 10.0893 12.173 10.0893C11.6259 10.0893 11.1784 9.61924 11.1784 9.04475C11.1784 8.47027 10.7308 8.00024 10.1838 8.00024H8.19459C7.64756 8.00024 7.2 8.47027 7.2 9.04475V22.1011C7.2 22.6756 7.64756 23.1456 8.19459 23.1456H15.7535C15.5049 22.4667 15.3557 21.6833 15.3557 20.8999C15.3059 17.5053 17.9416 14.7896 21.1243 14.7896C22.0195 14.7896 22.8649 14.9985 23.6108 15.364V9.04475C23.6108 8.47027 23.1632 8.00024 22.6162 8.00024ZM10.1838 20.6388C9.63675 20.6388 9.18919 20.1688 9.18919 19.5943C9.18919 19.0198 9.63675 18.5498 10.1838 18.5498C10.7308 18.5498 11.1784 19.0198 11.1784 19.5943C11.1784 20.1688 10.7308 20.6388 10.1838 20.6388ZM10.1838 17.5053C9.63675 17.5053 9.18919 17.0353 9.18919 16.4608C9.18919 15.8863 9.63675 15.4163 10.1838 15.4163C10.7308 15.4163 11.1784 15.8863 11.1784 16.4608C11.1784 17.0353 10.7308 17.5053 10.1838 17.5053ZM13.1676 20.6388C12.6205 20.6388 12.173 20.1688 12.173 19.5943C12.173 19.0198 12.6205 18.5498 13.1676 18.5498C13.7146 18.5498 14.1622 19.0198 14.1622 19.5943C14.1622 20.1688 13.7146 20.6388 13.1676 20.6388ZM13.1676 17.5053C12.6205 17.5053 12.173 17.0353 12.173 16.4608C12.173 15.8863 12.6205 15.4163 13.1676 15.4163C13.7146 15.4163 14.1622 15.8863 14.1622 16.4608C14.1622 17.0353 13.7146 17.5053 13.1676 17.5053ZM13.1676 14.3718C12.6205 14.3718 12.173 13.9017 12.173 13.3272C12.173 12.7528 12.6205 12.2827 13.1676 12.2827C13.7146 12.2827 14.1622 12.7528 14.1622 13.3272C14.1622 13.9017 13.7146 14.3718 13.1676 14.3718ZM16.1513 14.3718C15.6043 14.3718 15.1568 13.9017 15.1568 13.3272C15.1568 12.7528 15.6043 12.2827 16.1513 12.2827C16.6984 12.2827 17.1459 12.7528 17.1459 13.3272C17.1459 13.9017 16.6984 14.3718 16.1513 14.3718Z" fill="white"/>
<path d="M21.1243 16.1996C18.6378 16.1996 16.6487 18.2887 16.6487 20.8999C16.6487 23.5112 18.6378 25.6002 21.1243 25.6002C23.6108 25.6002 25.6 23.5112 25.6 20.8999C25.6 18.2887 23.6108 16.1996 21.1243 16.1996ZM21.7211 21.1611C21.7211 21.5266 21.4227 21.7878 21.1243 21.7878H18.6378C18.2897 21.7878 18.0411 21.4744 18.0411 21.1611C18.0411 20.7955 18.3395 20.5344 18.6378 20.5344H20.5276V18.0275C20.5276 17.662 20.8259 17.4008 21.1243 17.4008C21.4227 17.4008 21.7211 17.7142 21.7211 18.0275V21.1611Z" fill="white"/>
</g>
<defs>
<clipPath id="clip0_2_262">
<rect width="18.4" height="17.6" fill="white" transform="translate(7.2 8.00024)"/>
</clipPath>
</defs>
</svg>
